<?xml version="1.0" encoding="UTF-8"?>
<svg version="1.1" xmlns="http://www.w3.org/2000/svg" width="429" height="429">
<path d="M0 0 C0.86898926 -0.00067474 1.73797852 -0.00134949 2.63330078 -0.00204468 C16.40569284 0.01491405 29.75213076 0.67527842 43.3125 3.25 C44.69284424 3.49943359 44.69284424 3.49943359 46.10107422 3.75390625 C85.44695474 10.99918348 122.14781836 27.8778867 152.3125 54.25 C152.96234863 54.81477051 153.61219727 55.37954102 154.28173828 55.96142578 C162.85334381 63.48041523 170.38917284 71.35075695 177.09667969 80.578125 C178.24659008 82.15936724 179.42333018 83.72099697 180.6015625 85.28125 C198.63158594 110.00085811 209.3325373 139.61551395 210.3125 170.25 C210.35246094 171.08402344 210.39242188 171.91804687 210.43359375 172.77734375 C211.53338035 214.76331442 193.61761356 254.52778316 165.4375 285 C160.96171653 289.7113163 156.36589635 294.15789545 151.3125 298.25 C150.28465423 299.12441023 149.25736335 299.99947293 148.23046875 300.875 C118.30954983 326.00690033 81.5941902 341.47935659 43.3125 348.25 C41.94665771 348.49556641 41.94665771 348.49556641 40.55322266 348.74609375 C-18.34406122 358.86008537 -83.30728868 345.96472282 -132.4609375 311.5859375 C-139.80884398 306.26626671 -146.63725593 300.51210149 -153.32421875 294.38671875 C-155.38127129 292.52687125 -157.48650468 290.76393198 -159.625 289 C-185.60302164 266.26923107 -203.94183729 228.33674287 -207.6875 194.25 C-208.06750845 188.25580694 -208.07814178 182.25402385 -208.0625 176.25 C-208.06162384 175.42918945 -208.06074768 174.60837891 -208.05984497 173.76269531 C-208.01550574 161.16974076 -207.29200229 149.38472079 -203.6875 137.25 C-203.4620752 136.43321777 -203.23665039 135.61643555 -203.00439453 134.77490234 C-190.91378038 91.47687814 -159.60055849 54.44841197 -120.70263672 32.375 C-91.38688142 16.00875328 -62.00811055 5.77877639 -28.6875 1.25 C-27.93944092 1.1454248 -27.19138184 1.04084961 -26.4206543 0.93310547 C-17.66080342 -0.12098056 -8.80980564 0.00614802 0 0 Z " fill="#F20E0E" transform="translate(213.6875,38.75)"/>
<path d="M0 0 C3.5135059 -0.65639337 6.50598988 -0.84073206 10 0 C13.07687907 2.97149021 14.77696466 6.58202542 16.6875 10.375 C17.8885741 12.59155176 19.09042335 14.80768363 20.29296875 17.0234375 C20.90188965 18.17682617 21.51081055 19.33021484 22.13818359 20.51855469 C25.11943387 26.09325033 28.31724993 31.53872774 31.5 37 C32.75741722 39.1804669 34.01392843 41.36145653 35.26953125 43.54296875 C38.8865141 49.81259422 42.53388496 56.06417162 46.1875 62.3125 C50.99843084 70.54144183 55.75466106 78.79923858 60.47045898 87.08300781 C64.75495579 94.59798558 69.11757039 102.06603364 73.48803711 109.53125 C76.77717356 115.15968006 80.03984936 120.80215174 83.26953125 126.46484375 C83.62798126 127.09330704 83.98643127 127.72177032 84.35574341 128.36927795 C86.10116621 131.43141932 87.84369514 134.49517527 89.58300781 137.56079102 C92.29476422 142.32773342 95.00641193 147.06864961 97.96484375 151.6875 C100 155 100 155 100 157 C100.66 157 101.32 157 102 157 C101.88015732 152.92881691 101.75584005 148.85779536 101.62768555 144.78686523 C101.58484114 143.40701849 101.54314027 142.02713567 101.50268555 140.6472168 C101.4437349 138.64362252 101.38008558 136.64016831 101.31640625 134.63671875 C101.27974854 133.43748779 101.24309082 132.23825684 101.20532227 131.00268555 C101.08237522 127.98311664 100.80417721 124.99925874 100.4942627 121.9934082 C99.94524795 116.01853735 99.86584629 110.09938366 99.88647461 104.1027832 C99.88632858 102.96976273 99.88618256 101.83674225 99.8860321 100.66938782 C99.88672298 96.96316544 99.89447638 93.25699474 99.90234375 89.55078125 C99.90421087 86.96575447 99.90563338 84.38072733 99.90663147 81.79570007 C99.91004593 75.7115936 99.91790932 69.62750813 99.92798096 63.54340953 C99.93920669 56.60979435 99.94466874 49.67617824 99.94967639 42.74255621 C99.96009394 28.49502612 99.97841336 14.24751745 100 0 C113.2 0 126.4 0 140 0 C140 69.63 140 139.26 140 211 C121.19 211 102.38 211 83 211 C68.50925047 185.94590035 68.50925047 185.94590035 61.4375 173.375 C56.42872924 164.47607881 51.31392255 155.64345996 46.15551758 146.83056641 C41.96159792 139.66142327 37.80027033 132.47505102 33.70800781 125.24731445 C31.11208424 120.66716541 28.48238418 116.11089037 25.79290771 111.58517456 C24.28571945 109.04462151 22.79160181 106.49649636 21.29852295 103.94763184 C20.56351535 102.70050527 19.82258347 101.45684953 19.07550049 100.21691895 C18.02857792 98.47791888 17.00407075 96.72548454 15.98046875 94.97265625 C15.38129639 93.96468994 14.78212402 92.95672363 14.16479492 91.91821289 C12.37716215 87.43957644 13.50117688 84.35047235 15.12109375 79.96484375 C15.77271484 78.46630859 15.77271484 78.46630859 16.4375 76.9375 C17.08525391 75.43509766 17.08525391 75.43509766 17.74609375 73.90234375 C18.50663996 72.14195174 19.28348548 70.38832166 20.08984375 68.6484375 C21.32984154 65.04020359 21.71281776 61.46808957 22.125 57.6875 C22.21136719 56.94693359 22.29773438 56.20636719 22.38671875 55.44335938 C22.59734705 53.62961565 22.79952986 51.81489457 23 50 C15.97381621 56.10726639 9.19055564 62.21416654 4 70 C3.34 70 2.68 70 2 70 C0.85498047 68.43945312 0.85498047 68.43945312 -0.3828125 66.28125 C-0.78387207 65.59095703 -1.18493164 64.90066406 -1.59814453 64.18945312 C-2.10200684 63.30193359 -2.60586914 62.41441406 -3.125 61.5 C-4.73375 58.695 -6.3425 55.89 -8 53 C-8 65.21 -8 77.42 -8 90 C-8.33 90 -8.66 90 -9 90 C-9.43146845 84.87745971 -9.85856067 79.75457953 -10.28173828 74.63134766 C-10.42606621 72.89134053 -10.57155464 71.15142924 -10.71826172 69.41162109 C-10.92987087 66.89966209 -11.13719659 64.38737918 -11.34375 61.875 C-11.44218201 60.72294067 -11.44218201 60.72294067 -11.54260254 59.54760742 C-11.93748828 54.68132267 -12.19187576 49.88224688 -12 45 C-10.42578125 43.37109375 -10.42578125 43.37109375 -8.3125 42.4375 C-3.87587581 40.03400022 -0.8364554 37.84000395 1 33 C1.81110341 25.86983514 0.96378981 18.69846281 0.22265625 11.58984375 C-0.11045752 7.71520461 -0.06371746 3.88676511 0 0 Z " fill="#FEFDFD" transform="translate(165,108)"/>
<path d="M0 0 C14.85 0 29.7 0 45 0 C43.43804596 3.12390809 42.20579304 5.16922214 40 7.75 C39.484375 8.36359375 38.96875 8.9771875 38.4375 9.609375 C37 11 37 11 35 11 C32.79855191 8.12557036 30.95104804 5.05381433 29 2 C27.35 5.3 25.7 8.6 24 12 C19.96544911 10.38617965 18.20318936 9.59503354 15.1875 6.875 C14.58292969 6.33617188 13.97835937 5.79734375 13.35546875 5.2421875 C12.90816406 4.83226563 12.46085938 4.42234375 12 4 C12.22203537 8.14781922 12.48271597 12.29237017 12.75 16.4375 C12.811875 17.60216797 12.87375 18.76683594 12.9375 19.96679688 C13.48850711 28.11711039 14.59178676 35.20227668 20.1875 41.4375 C22.83874365 42.91041314 24.74644534 43.48638561 27.67578125 44.09765625 C28.89068237 44.35494507 28.89068237 44.35494507 30.13012695 44.61743164 C30.74718506 44.7436792 31.36424316 44.86992676 32 45 C34.03809628 61.00183587 35.53138436 76.87315822 36 93 C33.66190219 90.66190219 33.09032659 88.84073223 31.9375 85.75 C26.41178347 72.28207284 17.09105997 58.4271024 5 50 C5.90274277 67.62605259 11.40103855 83.44615741 23 97 C23.79148438 97.928125 24.58296875 98.85625 25.3984375 99.8125 C29.79512811 104.85701951 29.79512811 104.85701951 35 109 C35.35644531 111.10717773 35.35644531 111.10717773 35.328125 113.68359375 C35.32296875 114.61107422 35.3178125 115.53855469 35.3125 116.49414062 C35.291875 117.46544922 35.27125 118.43675781 35.25 119.4375 C35.24484375 120.40494141 35.2396875 121.37238281 35.234375 122.36914062 C35.15480303 129.5355909 35.15480303 129.5355909 34 133 C34.99 132.67 35.98 132.34 37 132 C37.66 124.74 38.32 117.48 39 110 C39.33 110 39.66 110 40 110 C40 143.33 40 176.66 40 211 C26.8 211 13.6 211 0 211 C0 141.37 0 71.74 0 0 Z " fill="#FEFBFB" transform="translate(118,108)"/>
<path d="M0 0 C4.45908022 -0.35672642 7.95563158 -0.49021375 12.0625 1.4375 C15.4394947 4.38338899 18.13521917 7.63299143 20.875 11.171875 C22.9202322 13.23111524 22.9202322 13.23111524 25.9296875 13.6015625 C30.1481128 12.77505169 31.42845597 10.91326216 34.125 7.625 C39.49077676 1.15597942 39.49077676 1.15597942 43 0 C45.359375 -0.1953125 45.359375 -0.1953125 47.75 -0.125 C48.54921875 -0.10695313 49.3484375 -0.08890625 50.171875 -0.0703125 C50.77515625 -0.04710937 51.3784375 -0.02390625 52 0 C53.48834339 4.46503017 51.57747861 7.29633325 49.8125 11.5 C49.50763672 12.27214844 49.20277344 13.04429687 48.88867188 13.83984375 C47.21778336 17.88220297 46.00170516 20.79950581 42 23 C42.2475 24.03125 42.495 25.0625 42.75 26.125 C43.05599201 30.86787618 41.94501878 32.38183407 39 36 C37 38 37 38 34.625 38.4375 C32 38 32 38 29.6875 35.5 C28.8521875 34.2625 28.8521875 34.2625 28 33 C27.67 33.99 27.34 34.98 27 36 C26.34 36 25.68 36 25 36 C24.67 35.01 24.34 34.02 24 33 C23.443125 33.825 22.88625 34.65 22.3125 35.5 C20 38 20 38 17.5625 38.625 C13.75043378 37.69522775 12.34083732 36.12111643 10 33 C9.14528505 30.16565494 9.04884971 28.02868204 9 25 C9.66 24.01 10.32 23.02 11 22 C10.25492187 21.84402344 9.50984375 21.68804687 8.7421875 21.52734375 C4.60371026 19.22229446 3.75766187 15.86065983 2.125 11.5625 C1.8053125 10.78583984 1.485625 10.00917969 1.15625 9.20898438 C-1.13881407 3.41644222 -1.13881407 3.41644222 0 0 Z " fill="#F31F1F" transform="translate(248,275)"/>
<path d="M0 0 C0.66 0.33 1.32 0.66 2 1 C2.02332551 28.3633271 2.04097746 55.72665272 2.05181217 83.08998775 C2.05697587 95.79428883 2.06401997 108.49858374 2.07543945 121.20288086 C2.08538404 132.27158425 2.09185289 143.34028318 2.09408849 154.40899092 C2.09539599 160.27370828 2.09848425 166.13841287 2.10573006 172.00312614 C2.11248673 177.51628528 2.11461769 183.02942631 2.11310768 188.54258919 C2.11338417 190.57237979 2.11539138 192.60217097 2.11920547 194.63195801 C2.12413721 197.39043917 2.12300022 200.1488508 2.12025452 202.90733337 C2.12316736 203.72151967 2.1260802 204.53570598 2.12908131 205.37456459 C2.11412121 210.88587879 2.11412121 210.88587879 1 212 C-0.7492872 212.09365006 -2.50236254 212.11744438 -4.25415039 212.11352539 C-5.37523697 212.11344986 -6.49632355 212.11337433 -7.65138245 212.11329651 C-9.48103798 212.10555458 -9.48103798 212.10555458 -11.34765625 212.09765625 C-12.58921982 212.0962413 -13.83078339 212.09482635 -15.10997009 212.09336853 C-18.41605491 212.08870591 -21.72207146 212.07971497 -25.02813721 212.06866455 C-28.3996115 212.05844827 -31.77109283 212.05387045 -35.14257812 212.04882812 C-41.76173775 212.03777395 -48.38086493 212.02101736 -55 212 C-55.33 211.34 -55.66 210.68 -56 210 C-28.775 209.505 -28.775 209.505 -1 209 C-0.505 105.545 -0.505 105.545 0 0 Z " fill="#2D0303" transform="translate(306,110)"/>
<path d="M0 0 C4.97523714 -0.31793398 7.06815604 0.91370227 10.86328125 3.95703125 C15.41602032 8.31001577 20.64830985 13.57981327 21.3125 20.0390625 C21.01312051 22.8756832 20.47212701 25.20165073 19.5 27.875 C19.2215625 28.65617187 18.943125 29.43734375 18.65625 30.2421875 C18.4396875 30.82226562 18.223125 31.40234375 18 32 C15.75 32.75 15.75 32.75 13 33 C10.6875 31.4375 10.6875 31.4375 9 29 C8.5625 25.9375 8.5625 25.9375 9 23 C10.5 21.25 10.5 21.25 12 20 C12 19.34 12 18.68 12 18 C10.948125 17.938125 9.89625 17.87625 8.8125 17.8125 C6.890625 17.296875 6.890625 17.296875 5 16 C2.33259839 11.06134553 0 5.66642457 0 0 Z " fill="#FEF4F4" transform="translate(252,277)"/>
<path d="M0 0 C-0.49280574 6.07793746 -2.72268511 11.88461432 -6 17 C-9.3125 18.1875 -9.3125 18.1875 -12 18 C-11.65213292 19.97536745 -11.65213292 19.97536745 -11 22 C-10.34 22.33 -9.68 22.66 -9 23 C-8.67271953 26.60008519 -8.59577187 28.41611492 -10.6875 31.4375 C-13 33 -13 33 -15.75 32.75 C-16.4925 32.5025 -17.235 32.255 -18 32 C-18.51172094 30.6293189 -19.00877492 29.25315925 -19.5 27.875 C-19.7784375 27.10929687 -20.056875 26.34359375 -20.34375 25.5546875 C-21.57476064 20.76253895 -21.622952 18.0748475 -19.09375 13.7109375 C-18.24891423 12.58388181 -17.38335607 11.47212536 -16.5 10.375 C-16.04874756 9.80177002 -15.59749512 9.22854004 -15.13256836 8.63793945 C-11.01102137 3.61791118 -6.86152311 0 0 0 Z " fill="#FEF5F5" transform="translate(296,277)"/>
<path d="M0 0 C0.33 0 0.66 0 1 0 C1 34.98 1 69.96 1 106 C-11.87 106 -24.74 106 -38 106 C-38.66 105.01 -39.32 104.02 -40 103 C-27.13 103 -14.26 103 -1 103 C-1.00523682 99.915354 -1.01047363 96.83070801 -1.01586914 93.65258789 C-1.03240302 83.48651757 -1.04347041 73.32044667 -1.05181217 63.15436649 C-1.05704158 56.9877508 -1.06414027 50.82114882 -1.07543945 44.65454102 C-1.08626629 38.70883994 -1.0922764 32.76315211 -1.09487724 26.81744194 C-1.09673186 24.54353057 -1.10035317 22.26961996 -1.10573006 19.99571419 C-1.11293778 16.8227288 -1.11399106 13.64979883 -1.11352539 10.47680664 C-1.11712067 9.52662659 -1.12071594 8.57644653 -1.12442017 7.59747314 C-1.11405216 1.11405216 -1.11405216 1.11405216 0 0 Z " fill="#3F3535" transform="translate(159,216)"/>
<path d="M0 0 C2.97 0 5.94 0 9 0 C10.48834339 4.46503017 8.57747861 7.29633325 6.8125 11.5 C6.50763672 12.27214844 6.20277344 13.04429687 5.88867188 13.83984375 C4.21778336 17.88220297 3.00170516 20.79950581 -1 23 C-0.7525 24.03125 -0.505 25.0625 -0.25 26.125 C0.05599201 30.86787618 -1.05498122 32.38183407 -4 36 C-6 38 -6 38 -8.625 38.125 C-9.40875 38.08375 -10.1925 38.0425 -11 38 C-11.66 36.68 -12.32 35.36 -13 34 C-11.8553125 34.0928125 -11.8553125 34.0928125 -10.6875 34.1875 C-8.03179876 34.2186709 -8.03179876 34.2186709 -6.25 32.875 C-4.56014759 30.34022139 -4.33269391 27.99424517 -4 25 C-4.99 24.67 -5.98 24.34 -7 24 C-7.6875 21.9375 -7.6875 21.9375 -8 20 C-6.91589844 19.83757812 -5.83179688 19.67515625 -4.71484375 19.5078125 C-2.32129365 18.82394104 -1.2809742 18.41033064 0.14013672 16.33496094 C1.03769154 14.2060203 1.76384786 12.08488437 2.4375 9.875 C2.69208984 9.12089844 2.94667969 8.36679687 3.20898438 7.58984375 C3.83123252 5.73483985 4.41906529 3.86835412 5 2 C3.02 2 1.04 2 -1 2 C-0.67 1.34 -0.34 0.68 0 0 Z " fill="#F31F1F" transform="translate(291,275)"/>
<path d="M0 0 C0 0.99 0 1.98 0 3 C-18.48 3 -36.96 3 -56 3 C-56.33 2.34 -56.66 1.68 -57 1 C-49.20378066 0.85733099 -41.40755623 0.71494318 -33.61132812 0.57275391 C-30.95735558 0.52431663 -28.30338422 0.4758142 -25.64941406 0.42724609 C-21.84179996 0.35757728 -18.03418169 0.28814029 -14.2265625 0.21875 C-13.03382721 0.19687622 -11.84109192 0.17500244 -10.61221313 0.15246582 C-8.96072769 0.12243469 -8.96072769 0.12243469 -7.27587891 0.09179688 C-6.30325104 0.07403198 -5.33062317 0.05626709 -4.32852173 0.03796387 C-2.88581739 0.01444223 -1.44289607 0 0 0 Z " fill="#270303" transform="translate(307,319)"/>
<path d="M0 0 C3.00617269 3.00617269 2.59585316 5.82381598 3 10 C2.34 9.34 1.68 8.68 1 8 C0.67 8.99 0.34 9.98 0 11 C-0.66 11 -1.32 11 -2 11 C-2.33 10.01 -2.66 9.02 -3 8 C-3.99 8.99 -4.98 9.98 -6 11 C-5.34 7.7 -4.68 4.4 -4 1 C-2.68 1.33 -1.36 1.66 0 2 C0 1.34 0 0.68 0 0 Z " fill="#F64A4A" transform="translate(275,300)"/>
<path d="M0 0 C2.125 0.9375 2.125 0.9375 4 2 C2.2365625 2.7115625 2.2365625 2.7115625 0.4375 3.4375 C-4.18716944 5.70063611 -6.57664508 8.89389583 -9.45703125 13.07421875 C-11 15 -11 15 -14 16 C-14 13 -14 13 -11.9375 10.75 C-10.95880839 9.83282615 -9.97958044 8.91622449 -9 8 C-7.76832748 6.75246904 -6.53922879 5.50239258 -5.3125 4.25 C-2.24733475 1.12366738 -2.24733475 1.12366738 0 0 Z " fill="#F42F2F" transform="translate(289,276)"/>
<path d="M0 0 C0.66 0.33 1.32 0.66 2 1 C2 3.64 2 6.28 2 9 C1.01 9 0.02 9 -1 9 C-0.67 6.03 -0.34 3.06 0 0 Z " fill="#F31010" transform="translate(273,293)"/>
<path d="M0 0 C0.66 0.66 1.32 1.32 2 2 C-2.625 7.875 -2.625 7.875 -6 9 C-6 6 -6 6 -3.5625 3.375 C-2.716875 2.59125 -1.87125 1.8075 -1 1 C-0.67 0.67 -0.34 0.34 0 0 Z " fill="#F65252" transform="translate(281,283)"/>
<path d="M0 0 C0.66 0 1.32 0 2 0 C2.66 0.66 3.32 1.32 4 2 C3.625 4.125 3.625 4.125 3 6 C2.01 5.67 1.02 5.34 0 5 C0 3.35 0 1.7 0 0 Z " fill="#F31B1B" transform="translate(273,288)"/>
<path d="M0 0 C2 1 4 2 6 3 C6 4.32 6 5.64 6 7 C5.34 7 4.68 7 4 7 C2.02 3.535 2.02 3.535 0 0 Z " fill="#F65151" transform="translate(267,286)"/>
</svg>
